<?xml version="1.0" encoding="utf-8"?>
<!-- Generator: Adobe Illustrator 26.5.0, SVG Export Plug-In . SVG Version: 6.00 Build 0)  -->
<svg version="1.1" id="Layer_1" xmlns="http://www.w3.org/2000/svg" xmlns:xlink="http://www.w3.org/1999/xlink" x="0px" y="0px"
	 viewBox="0 0 185.3 110" style="enable-background:new 0 0 185.3 110;" xml:space="preserve">
<style type="text/css">
	.st0{fill:url(#SVGID_1_);}
	.st1{fill:#F9E2A6;}
	.st2{fill:url(#SVGID_00000103973916197812843380000007496218260556309660_);}
	.st3{fill:#FFFFFF;}
	.st4{fill:#B7B7B7;}
</style>
<g id="Artwork_1_00000089559860569322966350000002412064485052074127_">
	<g>
		<path class="st4" d="M42,16.2C42,7,33,1.3,24.6,1.3H0v48.8h14.6V26.5L26,49.7l0.2,0.3h16.7L31.2,29.6C37.9,27.6,42,22.5,42,16.2
			 M14.6,8.3h4.3c4.7,0,8,3.3,8,8.1c0,6.9-3.9,8.2-10.7,8.2h-1.6V8.3H14.6z"/>
		<polygon class="st4" points="167.5,42.2 167.5,28.9 183.4,28.9 183.4,21.2 167.5,21.2 167.5,9.1 185.3,9.1 185.3,1.3 152.9,1.3 
			152.9,50.1 185.2,50.1 185.2,42.2 		"/>
		<path class="st4" d="M122.8,1.3h-21.6v48.8h23.8c14.6,0,24-9.3,24-23.5C149,11.9,137.9,1.3,122.8,1.3 M133.8,24.7
			c0,9.1-3.6,18.8-13.7,18.8h-4.9V8h4.4C129.4,8,133.8,16.4,133.8,24.7"/>
		<path class="st4" d="M96,4.6l-4-4l-5,5C82.6,2.1,76.9,0,70.7,0c-14.6,0-26,11.2-26,25.6c0,6.2,2.2,11.9,5.7,16.3l-4.9,4.9l4,4l5-5
			c4.4,3.4,9.9,5.3,16,5.3c14.5,0,25.9-11.2,25.9-25.6c0-6.1-2.1-11.7-5.6-16L96,4.6z M70.7,6.3c4.6,0,7.2,2.9,8.7,6.7L60.3,32.1
			c-0.3-2.4-0.4-4.7-0.4-6.4C59.9,19.9,61,6.3,70.7,6.3 M81,19.5c0.3,2.3,0.4,4.5,0.4,6.1c0,5.8-1.1,19.3-10.8,19.3
			c-4.5,0-7.1-2.8-8.6-6.4L81,19.5z"/>
		<path class="st4" d="M92.1,66.6c12-0.3,21.9,9.2,22.2,21.2c0.3,12-9.2,21.9-21.2,22.2c-12,0.3-21.9-9.2-22.2-21.2
			C70.6,76.8,80.1,66.9,92.1,66.6"/>
	</g>
</g>
</svg>
